<?xml version="1.0" standalone="no"?>
<!DOCTYPE svg PUBLIC "-//W3C//DTD SVG 20010904//EN"
 "http://www.w3.org/TR/2001/REC-SVG-20010904/DTD/svg10.dtd">
<svg version="1.0" xmlns="http://www.w3.org/2000/svg"
 width="700.000000pt" height="700.000000pt" viewBox="0 0 700.000000 700.000000"
 preserveAspectRatio="xMidYMid meet">
<metadata>
Created by potrace 1.11, written by Peter Selinger 2001-2013
</metadata>
<g transform="translate(0.000000,700.000000) scale(0.100000,-0.100000)"
fill="#000000" stroke="none">
<path d="M2880 6701 c-69 -71 -268 -276 -443 -454 -174 -179 -362 -371 -418
-428 -55 -57 -248 -254 -427 -437 -180 -184 -369 -377 -421 -430 -52 -54 -239
-245 -415 -425 -177 -180 -360 -368 -408 -418 -66 -66 -88 -96 -89 -116 0 -16
-1 -255 -1 -532 l-1 -503 246 -252 c261 -266 440 -449 1027 -1046 503 -512
607 -618 1044 -1064 209 -214 394 -401 409 -415 l29 -26 529 0 529 -1 348 354
c191 195 419 428 507 517 88 90 272 277 409 416 137 140 437 445 666 679 230
234 508 517 619 630 l201 205 0 531 0 531 -121 124 c-66 68 -270 276 -452 463
-183 186 -370 378 -417 426 -47 47 -233 238 -415 424 -181 186 -384 393 -450
461 -66 67 -268 274 -450 460 -181 185 -355 363 -387 396 l-56 59 -534 0 -533
0 -125 -129z m685 -1523 c27 -28 650 -641 1079 -1062 72 -71 252 -248 399
-394 l269 -265 -75 -76 c-42 -42 -135 -137 -208 -211 -72 -74 -321 -328 -553
-563 -231 -235 -523 -532 -648 -660 l-227 -232 -62 60 c-33 33 -275 272 -537
531 -263 260 -637 630 -832 822 l-355 351 187 188 c102 103 253 256 335 339
81 84 335 342 563 574 228 232 460 469 515 525 55 57 104 104 109 104 5 1 23
-14 41 -31z"/>
</g>
</svg>
